<?xml version="1.0" encoding="UTF-8" standalone="no"?><!DOCTYPE svg PUBLIC "-//W3C//DTD SVG 1.1//EN" "http://www.w3.org/Graphics/SVG/1.1/DTD/svg11.dtd"><svg width="100%" height="100%" viewBox="0 0 497 260" version="1.1" xmlns="http://www.w3.org/2000/svg" xmlns:xlink="http://www.w3.org/1999/xlink" xml:space="preserve" xmlns:serif="http://www.serif.com/" style="fill-rule:evenodd;clip-rule:evenodd;stroke-linejoin:round;stroke-miterlimit:2;"><path d="M417.413,147.699c-0.749,-0.332 -1.369,-0.864 -2.006,-1.317c-0.886,-0.629 -1.767,-1.277 -2.699,-1.827c-1.356,-0.8 -2.65,-1.665 -3.785,-2.761c-0.165,-0.16 -0.342,-0.375 -0.545,-0.417c-0.676,-0.141 -1.105,-0.64 -1.589,-1.039c-0.311,-0.259 -0.795,-0.162 -1,-0.52c-0.365,-0.636 -1.006,-0.892 -1.586,-1.226c-0.304,-0.175 -0.58,-0.39 -0.87,-0.565c-0.437,-0.265 -0.702,-0.703 -1.186,-0.94c-0.506,-0.246 -1.189,-0.319 -1.416,-1.065c-0.104,-0.34 -0.515,-0.593 -0.96,-0.694c-0.226,-0.053 -0.475,-0.196 -0.678,-0.409c-0.338,-0.35 -0.69,-0.764 -1.195,-0.846c-0.435,-0.071 -0.627,-0.34 -0.823,-0.657c-0.059,-0.096 -0.093,-0.254 -0.174,-0.284c-0.855,-0.307 -1.29,-1.191 -2.108,-1.532c-0.829,-0.344 -1.416,-1.039 -2.209,-1.453c-0.434,-0.226 -0.9,-0.547 -1.279,-0.94c-0.4,-0.412 -0.888,-0.756 -1.388,-1.043c-0.471,-0.271 -0.902,-0.54 -1.233,-0.992c-0.244,-0.331 -0.56,-0.648 -0.912,-0.849c-0.711,-0.407 -1.216,-1.049 -1.877,-1.51c-0.421,-0.295 -0.702,-0.784 -1.302,-0.822c-0.117,-0.008 -0.334,-0.078 -0.365,-0.254c-0.179,-0.97 -1.194,-1.09 -1.753,-1.684c-0.579,-0.616 -1.381,-1.073 -1.901,-1.751c-0.576,-0.752 -1.437,-1.153 -2.017,-1.871c-0.389,-0.483 -1.027,-0.623 -1.443,-1.053c-0.389,-0.405 -0.813,-0.769 -1.224,-1.149c-0.239,-0.223 -0.662,-0.043 -0.785,-0.495c-0.354,-1.287 -1.624,-1.805 -2.424,-2.72c-0.323,-0.368 -0.805,-0.7 -1.164,-1.062c-1.038,-1.05 -2.203,-1.929 -3.346,-2.845c-0.347,-0.277 -0.842,-0.373 -1.055,-0.796c-0.214,-0.434 -0.6,-0.638 -0.982,-0.861c-0.167,-0.098 -0.33,-0.194 -0.47,-0.341c-1.041,-1.086 -1.968,-2.293 -3.284,-3.086c-0.162,-0.096 -0.304,-0.224 -0.447,-0.345c-0.602,-0.512 -1.155,-1.085 -1.882,-1.439c-0.578,-0.281 -1.266,-0.483 -1.676,-0.93c-0.72,-0.781 -1.457,-1.475 -2.435,-1.906c-1.019,-0.45 -1.945,-1.08 -3.061,-1.349c-1.117,-0.272 -2.206,-0.614 -3.365,-0.726c-0.967,-0.094 -1.886,-0.418 -2.906,-0.239c-0.916,0.16 -1.846,-0.012 -2.656,-0.598c-0.336,-0.24 -0.739,-0.43 -1.141,-0.528c-1.488,-0.361 -3.002,-0.586 -4.542,-0.614c-0.417,0.008 -0.81,0.062 -1.079,0.464c-0.125,0.189 -0.324,0.35 -0.523,0.466c-1.714,1.004 -3.325,2.157 -4.873,3.397c-1.469,1.178 -2.935,2.358 -4.388,3.556c-1.291,1.066 -2.571,2.147 -3.838,3.243c-1.117,0.967 -2.18,2 -3.319,2.939c-1.953,1.614 -3.818,3.326 -5.692,5.024c-1.241,1.123 -2.55,2.162 -3.819,3.249c-1.026,0.88 -2.081,1.747 -3.162,2.574c-1.112,0.851 -2.178,1.765 -3.278,2.636c-1.195,0.95 -2.438,1.833 -3.575,2.868c-0.834,0.758 -1.805,1.415 -2.711,2.119c-0.982,0.764 -1.965,1.536 -2.868,2.391c-0.675,0.639 -1.416,1.187 -2.134,1.768c-0.679,0.55 -1.343,1.12 -2.037,1.651c-0.794,0.607 -1.45,1.378 -2.239,1.968c-1.049,0.785 -2.006,1.672 -3.027,2.486c-1.376,1.098 -2.58,2.4 -3.93,3.528c-1.861,1.557 -3.654,3.183 -5.422,4.841c-0.484,0.454 -0.868,1.013 -1.509,1.321c-0.397,0.191 -0.262,0.862 -0.72,1.093c0.28,0.506 0.004,1.073 0.191,1.608c0.128,0.37 0.482,0.846 -0.143,1.17c-0.057,0.03 -0.069,0.226 -0.044,0.332c0.146,0.621 0.056,1.254 0.166,1.896c0.208,1.2 0.683,2.211 1.431,3.085c1.303,1.517 3.267,2.318 4.448,3.988c0.119,0.17 0.383,0.126 0.505,0.336c0.625,1.089 1.749,1.657 2.62,2.494c0.346,0.331 0.81,0.431 1.242,0.555c0.519,0.149 1.247,0.096 1.452,-0.292c0.329,-0.626 1.094,-0.301 1.35,-0.856c1.167,-0.077 2.104,-0.743 3.137,-1.173c1.371,-0.57 2.551,-1.46 3.866,-2.122c1.931,-0.972 3.762,-2.141 5.642,-3.209c1.882,-1.07 3.78,-2.111 5.661,-3.181c2.162,-1.229 4.309,-2.488 6.473,-3.714c1.768,-1.001 3.563,-1.953 5.243,-3.101c0.695,-0.475 1.45,-0.845 2.138,-1.343c0.581,-0.42 1.353,-0.562 1.997,-0.91c1.502,-0.811 2.92,-1.756 4.213,-2.88c0.443,-0.385 0.983,-0.728 1.265,-1.213c0.343,-0.588 0.837,-0.841 1.384,-1.129c0.362,-0.192 0.834,-0.325 0.946,-0.85c0.026,-0.123 0.198,-0.242 0.33,-0.312c1.109,-0.587 2.013,-1.411 2.806,-2.368c0.298,-0.358 0.683,-0.574 1.111,-0.743c0.478,-0.187 0.854,-0.515 1.206,-0.89c0.412,-0.442 0.827,-0.88 1.31,-1.26c0.726,-0.572 1.43,-1.192 1.988,-1.936c0.322,-0.43 0.749,-0.709 1.153,-1.025c0.476,-0.374 0.997,-0.671 1.43,-1.125c0.426,-0.448 0.741,-0.986 1.275,-1.365c0.583,-0.414 1.195,-0.774 1.698,-1.355c0.889,-1.028 1.386,-0.959 2.557,-0.319c0.937,0.512 1.7,1.218 2.499,1.903c1.93,1.661 3.813,3.375 5.681,5.107c0.922,0.854 1.933,1.599 2.853,2.458c1.094,1.02 2.291,1.928 3.444,2.882c0.736,0.606 1.451,1.24 2.214,1.807c0.953,0.71 1.929,1.402 2.759,2.246c0.983,0.998 2.15,1.699 3.32,2.417c0.577,0.353 1.142,0.731 1.687,1.131c0.893,0.656 1.574,1.557 2.551,2.14c0.337,0.202 0.818,0.232 1.013,0.548c0.386,0.631 1.062,0.803 1.605,1.172c1.246,0.846 2.569,1.572 3.846,2.36c1.455,0.897 2.918,1.782 4.375,2.674c1.489,0.911 3.024,1.736 4.536,2.603c0.945,0.542 1.857,1.147 2.868,1.563c1.729,0.71 3.449,1.429 5.018,2.469c0.394,0.261 0.809,0.55 1.236,0.703c1.215,0.434 2.302,1.099 3.408,1.729c1.104,0.631 2.139,1.234 3.487,0.596c0.434,-0.206 0.933,-0.501 1.491,-0.393c0.693,0.132 1.266,-0.296 1.843,-0.515c1.109,-0.421 2.132,-1.068 3.193,-1.616c0.117,-0.061 0.248,-0.12 0.377,-0.128c0.647,-0.036 1.124,-0.391 1.509,-0.853c0.625,-0.753 1.397,-1.354 2.043,-2.09c0.504,-0.575 1.311,-0.806 1.908,-1.328c0.67,-0.582 1.245,-1.194 1.591,-2.021c0.234,-0.558 0.173,-1.143 0.256,-1.715c0.244,-1.688 0.132,-3.331 -0.527,-4.903c-0.16,-0.382 -0.485,-0.811 -0.844,-0.971Z" style="fill:#c6168d;fill-rule:nonzero;"/><path d="M402.025,233.962c0.112,-0.495 -0.022,-0.478 -0.402,-0.623c-0.75,-0.288 -1.677,0.082 -2.304,-0.626c-0.021,-0.026 -0.121,-0.01 -0.164,0.019c-0.419,0.274 -0.782,0.02 -1.073,-0.19c-0.677,-0.486 -1.481,-0.423 -2.215,-0.5c-0.544,-0.057 -1.142,-0.01 -1.706,-0.047c-1.124,-0.076 -2.241,-0.25 -3.364,-0.358c-1.297,-0.127 -2.599,-0.233 -3.898,-0.336c-2.151,-0.172 -4.305,-0.319 -6.452,-0.512c-0.745,-0.066 -1.494,-0.01 -2.226,-0.093c-1.324,-0.152 -2.65,-0.234 -3.981,-0.252c-1.247,-0.013 -2.502,0.073 -3.739,-0.035c-0.921,-0.08 -1.846,-0.117 -2.76,-0.127c-1.174,-0.011 -2.353,-0.057 -3.528,-0.057c-1.447,-0 -2.908,0.057 -4.363,-0.118c-0.983,-0.119 -1.991,-0.022 -2.989,-0.022c-1.922,0 -3.847,-0.006 -5.77,0.002c-0.754,0.002 -1.512,0.069 -2.266,0.043c-0.813,-0.031 -1.628,-0.255 -2.433,-0.144c-0.746,0.101 -1.494,0.142 -2.234,0.121c-0.921,-0.03 -1.861,-0.112 -2.765,-0.082c-0.913,0.029 -1.832,-0.041 -2.749,0.035c-1.536,0.128 -3.086,0.112 -4.629,0.139c-1.01,0.018 -2.024,0.044 -3.032,-0.011c-0.601,-0.034 -1.227,-0.02 -1.795,0.011c-0.728,0.042 -1.476,0.01 -2.211,0.081c-1.364,0.133 -2.749,0.096 -4.126,0.151c-1.301,0.051 -2.615,-0.069 -3.911,0.031c-2.286,0.176 -4.575,0.074 -6.86,0.193c-0.705,0.035 -1.406,0.148 -2.143,0.085c-0.796,-0.065 -1.647,0.099 -2.465,0.037c-1.49,-0.112 -2.963,-0.021 -4.453,0.081c-1.369,0.093 -2.742,0.413 -4.147,0.073c-1.072,-0.26 -2.171,0.196 -3.267,0.108c-0.14,-0.012 -0.198,0.111 -0.285,0.186c-0.551,0.473 -1.21,0.69 -1.894,0.913c-0.482,0.158 -1.028,-0.168 -1.419,0.215c-0.636,0.623 -1.705,0.796 -1.929,1.847c-0.008,0.033 -0.058,0.056 -0.076,0.089c-0.528,0.985 -1.065,1.964 -1.574,2.957c-0.147,0.29 -0.386,0.724 -0.276,0.913c0.365,0.628 -0.198,0.971 -0.362,1.385c-0.265,0.667 -0.266,0.813 0.48,0.96c-0.188,0.21 -0.38,0.518 -0.294,0.718c0.425,1.012 -0.298,1.774 -0.539,2.625c-0.158,0.559 -0.012,1.529 0.523,1.709c0.601,0.202 0.374,0.663 0.168,0.791c-0.687,0.428 -0.515,1.175 -0.792,1.743c-0.107,0.22 -0.088,0.35 0.032,0.572c0.279,0.52 -0.206,1.163 0.209,1.692c0.01,0.011 -0.023,0.074 -0.048,0.098c-0.384,0.392 -0.107,0.568 0.233,0.72c0.502,0.225 0.593,0.574 0.307,1.019c-0.144,0.224 -0.165,0.462 -0.118,0.773c0.045,0.293 0.435,0.324 0.332,0.531c-0.234,0.475 0.086,0.924 0.003,1.365c-0.122,0.663 0.267,1.103 0.643,1.49c0.374,0.388 0.562,0.702 0.237,1.184c-0.057,0.084 -0.024,0.179 -0.001,0.28c0.149,0.632 0.611,0.849 1.308,0.806c0.599,-0.037 1.233,0.024 1.808,0.195c0.587,0.173 1.156,0.264 1.708,0.046c0.437,-0.176 0.852,-0.245 1.386,-0.131c-0.072,0.111 -0.16,0.191 -0.143,0.23c0.082,0.209 -0.392,0.259 -0.144,0.479c0.193,0.172 0.399,0.061 0.593,-0.043c0.169,-0.092 0.32,-0.172 0.537,-0.037c0.465,0.29 1.02,0.224 1.496,0.131c1.366,-0.275 2.746,-0.433 4.129,-0.528c1.549,-0.107 3.037,-0.431 4.479,-0.999c0.368,-0.145 0.69,-0.262 1.09,0.065c0.283,0.228 0.723,0.393 1.135,0.029c0.169,-0.15 0.453,-0.276 0.698,-0.201c0.826,0.252 1.602,-0.108 2.389,-0.204c0.896,-0.114 1.767,-0.399 2.687,-0.176c0.177,0.045 0.38,0.033 0.578,-0.059c0.552,-0.256 1.098,-0.286 1.654,0.059c0.225,0.142 0.478,0.254 0.802,0.22c0.631,-0.066 1.304,-0.469 1.896,0.137c0.036,0.034 0.196,-0.008 0.269,-0.058c0.766,-0.533 1.647,-0.272 2.476,-0.368c0.645,-0.078 1.385,0.088 1.922,-0.152c0.906,-0.409 1.655,-0.002 2.437,0.172c0.303,0.068 0.477,0.26 0.724,-0.062c0.267,-0.346 0.646,-0.155 0.959,-0.103c0.93,0.145 1.891,-0.318 2.801,0.154c0.06,0.034 0.175,-0.057 0.256,-0.041c0.452,0.091 0.93,-0.241 1.35,0.02c0.796,0.497 1.761,0.322 2.351,0c0.865,-0.473 1.632,-0.103 2.423,-0.226c0.043,-0.008 0.12,0.09 0.151,0.155c0.109,0.217 0.295,0.279 0.515,0.282c0.299,0.004 0.616,-0.064 0.893,0.013c1.136,0.321 2.26,-0.026 3.384,-0.061c0.512,-0.016 1.068,-0.068 1.566,-0.034c0.976,0.065 1.939,0.102 2.908,-0.032c0.13,-0.018 0.314,-0.067 0.393,0.058c0.176,0.281 0.376,0.111 0.558,0.053c0.595,-0.191 1.245,-0.217 1.829,-0.248c1.331,-0.074 2.676,0.072 4.02,0.028c0.317,-0.01 0.604,-0.21 0.919,-0.12c0.7,0.196 1.39,0.2 2.04,-0.151c0.345,-0.187 0.717,-0.151 1.035,-0.073c0.678,0.162 1.299,0.152 1.905,-0.218c0.194,-0.118 0.401,-0.239 0.658,-0.138c0.387,0.15 0.766,0.269 1.201,0.107c0.262,-0.097 0.574,-0.072 0.864,-0.082c0.731,-0.026 1.49,0.328 2.186,-0.17c0.027,-0.019 0.08,0.007 0.117,-0.006c0.751,-0.274 1.533,-0.223 2.314,-0.252c1.035,-0.039 2.012,-0.652 3.091,-0.344c0.069,0.018 0.17,0.005 0.229,-0.034c0.577,-0.385 1.227,-0.338 1.867,-0.317c0.663,0.022 1.331,0.033 1.983,0.129c0.627,0.09 1.154,-0.262 1.767,-0.285c0.848,-0.033 1.713,-0.166 2.513,-0.553c0.982,-0.475 2.026,-0.66 3.124,-0.767c0.895,-0.088 1.947,0.08 2.656,-0.766c0.027,-0.034 0.117,-0.008 0.173,-0.026c0.661,-0.21 1.497,0.022 1.925,-0.776c0.016,-0.028 0.066,-0.047 0.102,-0.053c0.666,-0.098 1.151,-0.606 1.789,-0.777c0.639,-0.171 1.132,-0.708 1.83,-0.748c0.173,-0.01 0.313,-0.113 0.466,-0.204c0.306,-0.181 0.649,-0.364 0.992,-0.402c0.684,-0.077 1.155,-0.465 1.7,-0.816c0.434,-0.279 0.751,-0.753 1.288,-0.869c0.403,-0.087 0.718,-0.309 1.06,-0.533c0.302,-0.198 0.353,-0.617 0.74,-0.69c0.71,-0.134 0.978,-0.695 1.1,-1.298c0.171,-0.833 0.953,-1.142 1.472,-1.539c0.819,-0.631 1.601,-1.251 2.22,-2.076c0.426,-0.563 0.773,-1.068 0.822,-1.896c0.047,-0.815 0.553,-1.578 0.42,-2.53c-0.14,-0.995 0.044,-2.032 0.076,-3.053c0.011,-0.372 -0.121,-0.809 -0.055,-1.095Z" style="fill:#c6168d;fill-rule:nonzero;"/><path d="M496.334,104.16c0.058,-1.403 -0.389,-2.674 -1.191,-3.864c-0.557,-0.827 -1.347,-1.437 -1.895,-2.296c-0.402,-0.63 -1.139,-1.139 -1.897,-1.484c-0.264,-0.119 -0.558,-0.291 -0.702,-0.523c-0.391,-0.625 -1.054,-0.921 -1.555,-1.407c-0.562,-0.546 -1.365,-0.754 -1.906,-1.32c-0.358,-0.375 -0.744,-0.656 -1.26,-0.769c-0.272,-0.058 -0.54,0.002 -0.817,-0.079c-0.643,-0.188 -1.193,-0.593 -1.835,-0.759c-0.526,-0.137 -0.943,-0.475 -1.458,-0.651c-0.801,-0.272 -1.582,-0.64 -2.406,-0.835c-0.631,-0.148 -1.206,-0.536 -1.897,-0.448c-0.231,0.03 -0.511,0.056 -0.7,-0.046c-0.541,-0.294 -1.126,-0.167 -1.687,-0.253c-0.584,-0.09 -1.185,0.044 -1.756,0.002c-0.808,-0.061 -1.615,0.003 -2.418,-0.056c-0.227,-0.016 -0.316,0.115 -0.22,0.283c0.354,0.62 -0.018,0.646 -0.49,0.684c-0.265,0.022 -0.756,0.01 -0.578,0.466c0.169,0.437 -0.126,0.398 -0.321,0.467c-0.178,0.063 -0.384,0.05 -0.571,0.07c-0.626,0.066 -0.884,0.73 -1.489,0.822c-0.372,0.057 -0.386,0.293 -0.181,0.61c0.171,0.263 0.17,0.581 0.169,0.912c-0.001,1.257 -0.194,2.488 -0.379,3.721c-0.199,1.319 -0.376,2.64 -0.688,3.939c-0.37,1.534 -0.511,3.11 -0.777,4.662c-0.196,1.149 -0.253,2.371 -0.489,3.512c-0.399,1.93 -0.58,3.891 -1.006,5.814c-0.207,0.942 -0.214,1.934 -0.406,2.873c-0.283,1.384 -0.44,2.785 -0.646,4.174c-0.27,1.82 -0.459,3.652 -0.742,5.472c-0.237,1.532 -0.346,3.085 -0.621,4.609c-0.378,2.089 -0.519,4.203 -0.818,6.3c-0.142,0.995 -0.307,1.986 -0.452,2.98c-0.171,1.173 -0.337,2.348 -0.498,3.523c-0.172,1.247 -0.333,2.496 -0.505,3.743c-0.145,1.054 -0.339,2.103 -0.44,3.161c-0.114,1.217 -0.427,2.398 -0.541,3.619c-0.093,0.993 -0.268,1.989 -0.419,2.984c-0.144,0.957 -0.257,1.92 -0.395,2.878c-0.181,1.255 -0.376,2.506 -0.56,3.759c-0.147,0.995 -0.284,1.992 -0.437,2.985c-0.205,1.336 -0.492,2.663 -0.616,4.005c-0.112,1.219 -0.451,2.392 -0.571,3.605c-0.071,0.71 -0.391,1.391 -0.277,2.124c0.084,0.533 0.332,1.058 0.02,1.594c-0.063,0.111 0.02,0.176 0.085,0.252c0.551,0.653 1.221,1.159 1.928,1.631c0.23,0.152 0.515,-0.087 0.7,0.185c0.446,0.665 1.21,0.951 1.807,1.436c0.73,0.597 1.851,0.407 2.65,0.986c0.572,-0.271 0.993,0.273 1.496,0.279c0.432,0.006 0.748,0.486 1.196,0.254c0.373,-0.192 0.705,-0.378 1.129,-0.071c0.142,0.101 0.379,0.016 0.554,-0.199c0.232,-0.283 0.736,-0.268 0.846,-0.012c0.415,0.972 1.389,0.873 2.087,0.986c0.575,0.096 1.233,-0.121 1.833,0.191c0.16,0.085 0.267,-0.196 0.483,-0.051c0.523,0.348 1.092,0.545 1.745,0.419c0.28,-0.054 0.603,0.138 0.845,-0.165c0.073,-0.094 0.092,0.016 0.143,0.064c0.25,0.228 2.225,0.21 2.425,-0.051c0.143,-0.187 0.225,-0.282 0.45,-0.139c0.139,0.088 0.312,0.088 0.447,-0.016c0.559,-0.423 1.157,-0.079 1.724,-0.056c0.507,0.022 0.728,-0.202 0.889,-0.575c0.091,-0.208 0.055,-0.474 0.159,-0.669c0.14,-0.261 0.199,-0.661 0.735,-0.369c0.339,0.185 0.864,0.001 1.034,-0.394c0.211,-0.49 0.512,-0.483 0.843,-0.28c0.466,0.287 0.599,-0.013 0.682,-0.343c0.102,-0.409 0.129,-0.833 0.204,-1.247c0.118,-0.656 0.264,-0.757 0.878,-0.59c0.136,0.038 0.268,0.121 0.344,-0.036c0.068,-0.137 -0.006,-0.304 -0.142,-0.345c-0.206,-0.065 -0.11,-0.15 -0.088,-0.276c0.158,-0.823 0.38,-1.645 0.424,-2.475c0.043,-0.848 0.304,-1.663 0.223,-2.54c-0.044,-0.47 0.148,-0.98 0.104,-1.508c-0.026,-0.313 -0.19,-0.572 -0.171,-0.907c0.053,-0.952 0.527,-1.795 0.543,-2.777c0.02,-1.162 0.235,-2.331 0.06,-3.491c-0.137,-0.907 0.313,-1.759 -0.01,-2.727c-0.29,-0.871 0.508,-1.856 0.149,-2.842c-0.014,-0.04 0.024,-0.125 0.063,-0.155c0.235,-0.174 0.183,-0.426 0.166,-0.654c-0.041,-0.495 0.073,-0.972 0.165,-1.447c0.076,-0.385 0.198,-0.775 0.081,-1.152c-0.215,-0.681 -0.188,-1.288 0.335,-1.825c0.057,-0.058 -0.009,-0.155 -0.081,-0.196c-0.574,-0.322 -0.401,-0.932 -0.225,-1.244c0.524,-0.937 0.483,-1.91 0.5,-2.912c0.01,-0.547 -0.253,-1.159 0.195,-1.642c0.132,-0.143 0.001,-0.187 -0.033,-0.195c-0.306,-0.075 -0.118,-0.244 -0.071,-0.371c0.054,-0.142 0.227,-0.316 0.187,-0.403c-0.277,-0.614 0.129,-1.205 0.027,-1.809c-0.035,-0.204 0,-0.409 0.263,-0.444c0.513,-0.07 0.538,-0.458 0.568,-0.845c0.032,-0.417 0.008,-0.828 0.184,-1.236c0.154,-0.356 0.399,-0.739 0.166,-1.157c-0.126,-0.225 -0.02,-0.442 -0.032,-0.648c-0.026,-0.492 0.337,-0.954 0.118,-1.428c-0.118,-0.252 -0.077,-0.449 0.043,-0.652c0.175,-0.294 0.243,-0.598 0.25,-0.943c0.005,-0.235 -0.044,-0.662 0.198,-0.679c0.476,-0.034 0.364,-0.397 0.513,-0.618c0.144,-0.21 -0.045,-0.411 0.032,-0.576c0.35,-0.745 0.635,-1.493 0.761,-2.323c0.226,-1.478 0.648,-2.919 0.899,-4.396c0.091,-0.54 -0.125,-1.063 0.082,-1.577c0.15,-0.366 0.297,-0.708 0.159,-1.157c-0.062,-0.201 -0.038,-0.583 0.091,-0.84c0.338,-0.666 0.202,-1.432 0.479,-2.107c0.275,-0.672 -0.02,-1.413 0.306,-2.114c0.15,-0.321 0.411,-0.775 0.247,-1.155c-0.142,-0.332 0.007,-0.509 0.134,-0.737c0.084,-0.151 0.247,-0.305 0.239,-0.449c-0.049,-0.9 0.529,-1.65 0.572,-2.521c0.036,-0.734 0.234,-1.454 0.358,-2.165c0.125,-0.702 0.035,-1.44 0.362,-2.145c0.304,-0.655 0.489,-1.422 0.462,-2.16c-0.035,-0.969 0.148,-1.885 0.473,-2.772c0.262,-0.72 0.318,-1.48 0.538,-2.202c0.303,-1 0.059,-2.005 0.117,-3.043Z" style="fill:#c6168d;fill-rule:nonzero;"/><path d="M480.988,211.354c0.274,-0.716 0.103,-1.47 0.018,-2.109c-0.164,-1.224 -0.44,-2.459 -0.739,-3.678c-0.098,-0.394 -0.402,-0.785 -0.346,-1.134c0.149,-0.913 -0.162,-1.775 -0.476,-2.508c-0.427,-1 -0.934,-2.015 -1.67,-2.887c-0.443,-0.525 -0.871,-1.088 -1.275,-1.658c-0.37,-0.523 -0.884,-0.973 -1.411,-1.35c-0.332,-0.236 -0.704,-0.403 -0.978,-0.73c-0.595,-0.708 -1.476,-1.023 -2.258,-1.395c-1.003,-0.479 -2.132,-0.7 -3.219,-0.987c-1.166,-0.307 -2.342,-0.578 -3.52,-0.832c-0.301,-0.065 -0.565,-0.386 -0.874,-0.234c-0.47,0.228 -0.942,0.052 -1.428,0.114c-0.614,-0.105 -1.222,0.184 -1.857,0.118c-0.221,-0.023 -0.467,0.025 -0.296,0.371c0.094,0.186 -0.015,0.246 -0.188,0.284c-0.673,0.147 -1.359,0.207 -2.039,0.305c-0.572,0.082 -1.151,-0.022 -1.722,0.188c-0.393,0.146 -0.381,0.205 -0.073,0.39c0.586,0.35 0.307,0.986 0.434,1.475c0.034,0.139 -0.573,0.366 -0.964,0.319c-0.076,-0.01 -0.159,0.004 -0.234,0.023c-0.378,0.097 -0.661,0.211 -0.546,0.735c0.145,0.659 -0.025,1.342 -0.132,1.987c-0.297,1.79 -0.35,3.6 -0.571,5.394c-0.08,0.644 -0.059,1.297 -0.139,1.933c-0.158,1.276 -0.219,2.559 -0.267,3.835c-0.061,1.645 0.107,3.297 0.168,4.947c0.022,0.618 0.151,1.3 0.493,1.717c0.628,0.766 1.474,1.357 2.435,1.715c0.468,0.171 0.961,0.295 1.347,0.633c0.366,0.321 0.621,0.903 1.27,0.443c0.061,-0.043 0.247,0.069 0.365,0.132c0.553,0.305 1.187,-0.073 1.744,0.207c0.01,0.004 0.036,-0.015 0.052,-0.027c0.424,-0.312 0.806,-0.141 1.218,0.065c0.418,0.208 0.877,0.301 1.333,0.082c0.594,-0.288 1.217,-0.211 1.741,0.064c0.611,0.323 1.21,0.595 1.901,0.665c0.154,0.016 0.267,-0.154 0.425,-0.045c0.498,0.348 1.106,0.397 1.666,0.571c0.512,0.158 1.066,0.291 1.614,0.143c0.5,-0.133 0.827,-0.706 1.505,-0.492c0.174,0.053 0.564,0.126 0.802,0.032c0.565,-0.225 1.156,-0.102 1.72,-0.227c0.797,-0.171 1.648,-0.195 2.34,-0.71c0.535,-0.397 1.037,-0.856 1.79,-0.484c0.153,0.076 0.29,-0.066 0.331,-0.248c0.134,-0.586 0.494,-1.07 0.533,-1.733c0.038,-0.645 -0.062,-1.327 0.178,-1.969c0.249,-0.661 -0.177,-1.373 0.119,-2.045c0.051,-0.118 0.019,-0.272 -0.118,-0.371c-0.379,-0.28 -0.317,-0.734 -0.202,-1.034Z" style="fill:#c6168d;fill-rule:nonzero;"/><path d="M4.648,88.766l8.225,-0c4.649,-0 7.351,2.145 7.351,6.159c0,4.013 -2.702,6.158 -7.351,6.158l-8.225,-0l0,-12.317Zm0,14.224l9.815,-0l5.522,12l2.265,-0l-5.721,-12.517c3.536,-0.953 5.84,-3.853 5.84,-7.548c0,-4.889 -3.338,-8.106 -9.496,-8.106l-10.291,0l0,28.171l2.066,-0l0,-12Z" style="fill:#231f20;fill-rule:nonzero;"/><path d="M28.685,109.388c0,-2.425 1.907,-3.975 4.848,-4.173l7.112,-0.437l-0,1.033c-0,3.815 -1.987,7.867 -6.994,7.867c-2.821,0 -4.966,-1.43 -4.966,-4.29Zm11.96,1.827c-0,2.106 0.676,3.894 3.138,3.894c0.477,0 0.477,-0.04 0.954,-0.119l0,-1.749c-0.198,0.04 -0.317,0.04 -0.555,0.04c-1.351,0 -1.55,-0.795 -1.55,-2.146l0,-9.059c0,-1.312 -0.04,-2.583 -0.517,-3.814c-1.073,-2.742 -4.012,-3.656 -6.715,-3.656c-4.291,0 -7.431,2.226 -7.708,6.238l1.986,-0c0.199,-2.94 2.583,-4.37 5.722,-4.37c3.02,0 5.245,1.232 5.245,4.529l-0,1.948l-7.311,0.516c-3.934,0.278 -6.675,2.384 -6.675,5.921c0,3.813 2.98,6.118 6.834,6.118c3.06,-0 6.079,-1.47 7.152,-4.291Z" style="fill:#231f20;fill-rule:nonzero;"/><path d="M59.279,103.983l-3.775,-0.516c-3.019,-0.398 -3.854,-1.669 -3.854,-3.337c0,-1.074 0.556,-2.027 1.55,-2.743c0.873,-0.634 2.026,-0.913 3.575,-0.913c2.067,0 3.616,0.675 4.529,1.748c0.637,0.756 0.914,1.748 0.994,2.384l1.987,-0c-0.04,-1.272 -0.596,-2.582 -1.51,-3.655c-1.351,-1.59 -3.616,-2.345 -6,-2.345c-2.066,0 -4.013,0.557 -5.444,1.868c-1.032,0.953 -1.707,2.266 -1.707,3.854c-0,1.271 0.396,2.304 1.112,3.139c1.112,1.271 2.861,1.787 4.49,1.986l3.854,0.517c2.384,0.318 3.655,1.827 3.655,3.616c0,1.152 -0.357,1.828 -1.072,2.543c-0.994,0.994 -2.623,1.47 -4.689,1.47c-1.907,-0 -3.536,-0.476 -4.689,-1.59c-0.834,-0.834 -1.351,-1.868 -1.47,-3.06l-2.026,0c0.079,1.63 0.556,2.743 1.668,4.013c1.511,1.709 3.815,2.544 6.517,2.544c2.622,-0 5.006,-0.795 6.436,-2.383c0.875,-0.994 1.352,-2.187 1.352,-3.656c-0,-2.425 -1.749,-4.968 -5.483,-5.484Z" style="fill:#231f20;fill-rule:nonzero;"/><path d="M83.753,113.123c0.874,-0.994 1.351,-2.187 1.351,-3.656c0,-2.425 -1.748,-4.968 -5.482,-5.484l-3.775,-0.516c-3.021,-0.398 -3.855,-1.669 -3.855,-3.337c-0,-1.074 0.557,-2.027 1.55,-2.743c0.874,-0.634 2.026,-0.913 3.575,-0.913c2.067,0 3.617,0.675 4.53,1.748c0.636,0.756 0.914,1.748 0.994,2.384l1.986,-0c-0.039,-1.272 -0.596,-2.582 -1.509,-3.655c-1.351,-1.59 -3.617,-2.345 -6.001,-2.345c-2.065,0 -4.012,0.557 -5.443,1.868c-1.033,0.953 -1.708,2.266 -1.708,3.854c-0,1.271 0.397,2.304 1.112,3.139c1.113,1.271 2.861,1.787 4.49,1.986l3.854,0.517c2.384,0.318 3.656,1.827 3.656,3.616c-0,1.152 -0.358,1.828 -1.072,2.543c-0.994,0.994 -2.623,1.47 -4.69,1.47c-1.907,-0 -3.536,-0.476 -4.688,-1.59c-0.834,-0.834 -1.351,-1.868 -1.471,-3.06l-2.026,0c0.08,1.63 0.557,2.743 1.669,4.013c1.51,1.709 3.815,2.544 6.516,2.544c2.622,-0 5.006,-0.795 6.437,-2.383Z" style="fill:#231f20;fill-rule:nonzero;"/><path d="M91.58,103.706c-0,-3.935 2.583,-7.232 6.675,-7.232c4.053,0 6.398,3.457 6.477,7.232l-13.152,-0Zm15.178,0.515c-0,-5.005 -3.138,-9.615 -8.503,-9.615c-2.782,0 -5.086,1.193 -6.755,3.457c-1.549,2.106 -1.946,4.569 -1.946,7.073c-0,3.019 0.914,5.642 2.542,7.549c1.431,1.629 3.457,2.821 6.318,2.821c2.264,-0 4.252,-0.875 5.682,-2.305c1.112,-1.072 1.948,-2.463 2.226,-4.172l-2.067,0c-0.238,1.192 -0.794,2.066 -1.509,2.821c-1.074,1.112 -2.583,1.749 -4.332,1.749c-2.146,-0 -3.695,-0.795 -4.808,-2.106c-1.271,-1.51 -2.026,-3.656 -2.066,-5.961l15.179,-0c-0,-0.476 0.039,-0.834 0.039,-1.311Z" style="fill:#231f20;fill-rule:nonzero;"/><path d="M127.378,114.99l0,-11.245c0,-2.384 0.795,-4.45 2.344,-5.919c0.914,-0.835 2.027,-1.352 3.536,-1.352c3.458,0 4.729,2.065 4.729,5.523l0,12.993l1.987,-0l-0,-13.113c-0,-4.251 -1.947,-7.271 -6.596,-7.271c-3.258,0 -5.363,1.828 -6.397,4.292c-0.795,-2.583 -2.821,-4.292 -6.278,-4.292c-2.86,0 -5.006,1.669 -6.04,3.933l-0.238,-3.416l-1.748,-0l-0,19.867l1.986,-0l0,-9.934c0,-2.821 0.597,-5.563 2.384,-7.23c0.874,-0.835 2.027,-1.352 3.537,-1.352c3.456,0 4.768,2.065 4.768,5.523l-0,12.993l2.026,-0Z" style="fill:#231f20;fill-rule:nonzero;"/><path d="M151.932,111.97c-1.788,-1.749 -2.543,-4.173 -2.543,-6.914c0,-2.94 0.676,-5.245 2.503,-6.953c0.994,-0.954 2.344,-1.55 4.173,-1.55c1.867,-0 3.218,0.676 4.251,1.748c1.549,1.669 2.224,4.212 2.224,6.755c0,2.821 -0.793,5.484 -2.622,7.113c-0.992,0.873 -2.264,1.39 -3.933,1.39c-1.749,-0 -3.06,-0.636 -4.053,-1.589Zm9.378,1.669c2.224,-1.947 3.258,-5.126 3.258,-8.543c-0,-3.258 -0.994,-6.436 -3.1,-8.424c-1.312,-1.271 -3.099,-2.066 -5.403,-2.066c-2.821,0 -5.563,1.59 -6.636,3.855l-0,-12.159l-1.987,0l0,28.688l1.749,-0l0.238,-3.497c1.073,2.463 3.933,4.013 6.596,4.013c2.264,-0 3.973,-0.715 5.285,-1.867Z" style="fill:#231f20;fill-rule:nonzero;"/><path d="M170.526,86.302l0,24.714c0,2.9 1.431,4.212 3.974,4.212c0.834,-0 1.351,-0.119 1.788,-0.238l0,-1.749c-0.557,0.08 -0.914,0.08 -1.709,0.08c-1.669,-0 -2.066,-1.033 -2.066,-2.385l0,-24.634l-1.987,0Z" style="fill:#231f20;fill-rule:nonzero;"/><path d="M181.844,103.706c0,-3.935 2.584,-7.232 6.676,-7.232c4.053,0 6.397,3.457 6.477,7.232l-13.153,-0Zm6.676,-9.1c-2.782,0 -5.086,1.193 -6.755,3.457c-1.55,2.106 -1.947,4.569 -1.947,7.073c0,3.019 0.914,5.642 2.543,7.549c1.43,1.629 3.457,2.821 6.319,2.821c2.264,-0 4.251,-0.875 5.68,-2.305c1.113,-1.072 1.948,-2.463 2.226,-4.172l-2.066,0c-0.239,1.192 -0.795,2.066 -1.51,2.821c-1.073,1.112 -2.583,1.749 -4.33,1.749c-2.146,-0 -3.696,-0.795 -4.809,-2.106c-1.271,-1.51 -2.027,-3.656 -2.066,-5.961l15.178,-0c0,-0.476 0.039,-0.834 0.039,-1.311c0,-5.005 -3.138,-9.615 -8.502,-9.615Z" style="fill:#231f20;fill-rule:nonzero;"/><path d="M217.643,114.99l-0,-11.245c-0,-2.384 0.794,-4.45 2.344,-5.919c0.914,-0.835 2.026,-1.352 3.536,-1.352c3.457,0 4.729,2.065 4.729,5.523l-0,12.993l1.985,-0l0,-13.113c0,-4.251 -1.945,-7.271 -6.595,-7.271c-3.258,0 -5.363,1.828 -6.397,4.292c-0.794,-2.583 -2.821,-4.292 -6.278,-4.292c-2.86,0 -5.006,1.669 -6.039,3.933l-0.238,-3.416l-1.749,-0l0,19.867l1.987,-0l-0,-9.934c-0,-2.821 0.596,-5.563 2.384,-7.23c0.874,-0.835 2.027,-1.352 3.537,-1.352c3.456,0 4.767,2.065 4.767,5.523l0,12.993l2.027,-0Z" style="fill:#231f20;fill-rule:nonzero;"/><path d="M238.025,103.706c0,-3.935 2.583,-7.232 6.675,-7.232c4.053,0 6.397,3.457 6.477,7.232l-13.152,-0Zm15.178,0.515c0,-5.005 -3.139,-9.615 -8.503,-9.615c-2.781,0 -5.086,1.193 -6.754,3.457c-1.551,2.106 -1.947,4.569 -1.947,7.073c0,3.019 0.914,5.642 2.541,7.549c1.432,1.629 3.459,2.821 6.319,2.821c2.264,-0 4.251,-0.875 5.681,-2.305c1.113,-1.072 1.947,-2.463 2.225,-4.172l-2.065,0c-0.239,1.192 -0.796,2.066 -1.51,2.821c-1.073,1.112 -2.583,1.749 -4.331,1.749c-2.145,-0 -3.695,-0.795 -4.807,-2.106c-1.272,-1.51 -2.027,-3.656 -2.067,-5.961l15.178,-0c0,-0.476 0.04,-0.834 0.04,-1.311Z" style="fill:#231f20;fill-rule:nonzero;"/><path d="M274.817,114.99l-0,-13.113c-0,-4.45 -2.425,-7.271 -6.994,-7.271c-2.781,0 -5.602,1.629 -6.715,4.134l-0.238,-3.617l-1.749,-0l0,19.867l1.987,-0l-0,-9.934c-0,-4.292 1.708,-8.503 6.596,-8.503c3.615,-0 5.125,1.986 5.125,5.444l-0,12.993l1.988,-0Z" style="fill:#231f20;fill-rule:nonzero;"/><path d="M291.423,96.951l0,-1.828l-6.159,-0l0,-5.961l-1.986,0.478l-0,5.483l-3.973,-0l-0,1.828l3.973,0l-0,12.516c-0,3.456 1.431,5.801 5.125,5.801c1.113,-0 2.186,-0.238 3.299,-0.477l-0,-1.749c-1.073,0.199 -2.067,0.359 -3.139,0.359c-2.662,-0 -3.299,-1.669 -3.299,-4.013l0,-12.437l6.159,0Z" style="fill:#231f20;fill-rule:nonzero;"/><path d="M20.025,155.763l-5.84,-17.046l-2.107,0l-5.88,17.204l-4.291,-17.483l-1.907,0l4.926,19.868l2.344,0l5.802,-17.007l5.841,17.007l2.384,0l4.927,-19.868l-1.867,0l-4.332,17.325Z" style="fill:#231f20;fill-rule:nonzero;"/><path d="M44.017,149.127c0,3.815 -1.986,7.868 -6.993,7.868c-2.821,-0 -4.967,-1.43 -4.967,-4.291c0,-2.425 1.907,-3.974 4.848,-4.172l7.112,-0.437l0,1.032Zm1.987,5.325l0,-9.059c0,-1.312 -0.04,-2.583 -0.517,-3.815c-1.072,-2.741 -4.013,-3.655 -6.714,-3.655c-4.292,-0 -7.431,2.224 -7.71,6.237l1.987,0c0.199,-2.94 2.583,-4.369 5.723,-4.369c3.019,-0 5.244,1.23 5.244,4.529l0,1.947l-7.312,0.516c-3.933,0.279 -6.674,2.384 -6.674,5.921c-0,3.814 2.98,6.118 6.834,6.118c3.06,0 6.079,-1.47 7.152,-4.291c0,2.106 0.676,3.895 3.139,3.895c0.477,-0 0.477,-0.04 0.954,-0.12l0,-1.748c-0.199,0.039 -0.319,0.039 -0.556,0.039c-1.352,0 -1.55,-0.794 -1.55,-2.145Z" style="fill:#231f20;fill-rule:nonzero;"/><path d="M55.816,154.252l0,-24.633l-1.986,-0l-0,24.713c-0,2.901 1.43,4.212 3.973,4.212c0.835,0 1.35,-0.118 1.788,-0.238l-0,-1.748c-0.556,0.079 -0.914,0.079 -1.709,0.079c-1.668,0 -2.066,-1.032 -2.066,-2.385Z" style="fill:#231f20;fill-rule:nonzero;"/><path d="M66.902,154.252l-0,-24.633l-1.988,-0l-0,24.713c-0,2.901 1.431,4.212 3.974,4.212c0.835,0 1.35,-0.118 1.788,-0.238l-0,-1.748c-0.556,0.079 -0.914,0.079 -1.709,0.079c-1.668,0 -2.065,-1.032 -2.065,-2.385Z" style="fill:#231f20;fill-rule:nonzero;"/><path d="M82.828,156.875c-1.907,0 -3.337,-0.676 -4.37,-1.748c-1.788,-1.867 -2.225,-4.172 -2.225,-6.755c-0,-2.583 0.437,-4.887 2.225,-6.754c1.033,-1.073 2.463,-1.749 4.37,-1.749c1.908,0 3.338,0.676 4.371,1.749c1.788,1.867 2.225,4.171 2.225,6.754c0,2.583 -0.437,4.888 -2.225,6.755c-1.033,1.072 -2.463,1.748 -4.371,1.748Zm8.623,-8.503c-0,-3.377 -0.755,-5.999 -2.822,-8.065c-1.391,-1.391 -3.337,-2.384 -5.801,-2.384c-2.463,-0 -4.41,0.993 -5.8,2.384c-2.067,2.066 -2.821,4.688 -2.821,8.065c-0,3.378 0.754,6 2.821,8.067c1.39,1.39 3.337,2.383 5.8,2.383c2.464,0 4.41,-0.993 5.801,-2.383c2.067,-2.067 2.822,-4.689 2.822,-8.067Z" style="fill:#231f20;fill-rule:nonzero;"/><path d="M113.303,158.306l-0,-13.112c-0,-4.45 -2.424,-7.271 -6.992,-7.271c-2.783,-0 -5.604,1.629 -6.716,4.132l-0.239,-3.617l-1.748,0l0,19.868l1.987,0l-0,-9.934c-0,-4.291 1.709,-8.503 6.596,-8.503c3.616,0 5.125,1.987 5.125,5.444l0,12.993l1.987,0Z" style="fill:#231f20;fill-rule:nonzero;"/><path d="M142.188,155.127c-1.034,1.072 -2.384,1.748 -4.252,1.748c-1.828,0 -3.179,-0.596 -4.172,-1.549c-1.828,-1.708 -2.504,-4.013 -2.504,-6.954c-0,-2.741 0.756,-5.166 2.543,-6.912c0.994,-0.954 2.305,-1.591 4.053,-1.591c1.669,0 2.94,0.516 3.934,1.39c1.827,1.631 2.622,4.292 2.622,7.113c0,2.544 -0.675,5.086 -2.224,6.755Zm-4.292,-17.204c-2.662,-0 -5.523,1.549 -6.596,4.013l-0.238,-3.498l-1.75,0l0,27.815l1.988,-0l-0,-11.285c1.073,2.265 3.814,3.854 6.636,3.854c2.304,0 4.092,-0.795 5.404,-2.066c2.106,-1.986 3.099,-5.165 3.099,-8.424c-0,-3.417 -1.034,-6.595 -3.259,-8.541c-1.311,-1.152 -3.02,-1.868 -5.284,-1.868Z" style="fill:#231f20;fill-rule:nonzero;"/><path d="M159.43,156.875c-1.906,0 -3.337,-0.676 -4.37,-1.748c-1.788,-1.867 -2.226,-4.172 -2.226,-6.755c0,-2.583 0.438,-4.887 2.226,-6.754c1.033,-1.073 2.464,-1.749 4.37,-1.749c1.907,0 3.338,0.676 4.371,1.749c1.788,1.867 2.226,4.171 2.226,6.754c-0,2.583 -0.438,4.888 -2.226,6.755c-1.033,1.072 -2.464,1.748 -4.371,1.748Zm8.623,-8.503c-0,-3.377 -0.755,-5.999 -2.821,-8.065c-1.391,-1.391 -3.338,-2.384 -5.802,-2.384c-2.463,-0 -4.41,0.993 -5.801,2.384c-2.065,2.066 -2.821,4.688 -2.821,8.065c0,3.378 0.756,6 2.821,8.067c1.391,1.39 3.338,2.383 5.801,2.383c2.464,0 4.411,-0.993 5.802,-2.383c2.066,-2.067 2.821,-4.689 2.821,-8.067Z" style="fill:#231f20;fill-rule:nonzero;"/><path d="M187.52,154.651l0.239,3.615l1.749,0l0,-19.867l-1.988,-0l0,9.933c0,4.292 -1.707,8.503 -6.595,8.503c-3.615,0 -5.126,-1.986 -5.126,-5.443l0,-12.993l-1.986,-0l-0,13.112c-0,4.45 2.423,7.271 6.993,7.271c2.781,0 5.602,-1.589 6.714,-4.131Z" style="fill:#231f20;fill-rule:nonzero;"/><path d="M199.36,142.452l-0.239,-4.014l-1.748,0l-0,19.868l1.987,0l0,-9.536c0,-4.172 1.352,-8.623 6.318,-8.623c0.636,0 1.311,0.04 1.946,0.199l0,-1.986c-0.635,-0.12 -1.31,-0.12 -1.946,-0.12c-2.782,0 -5.443,1.471 -6.318,4.212Z" style="fill:#231f20;fill-rule:nonzero;"/><path d="M226.694,156.558c-0.555,0.079 -0.913,0.079 -1.708,0.079c-1.668,0 -2.066,-1.032 -2.066,-2.385l0,-24.633l-1.986,-0l-0,24.713c-0,2.901 1.43,4.212 3.973,4.212c0.834,0 1.35,-0.118 1.787,-0.238l0,-1.748Z" style="fill:#231f20;fill-rule:nonzero;"/><path d="M238.928,139.791c4.051,-0 6.397,3.456 6.476,7.231l-13.152,0c-0,-3.934 2.583,-7.231 6.676,-7.231Zm8.065,12.554l-2.067,0c-0.238,1.192 -0.793,2.067 -1.509,2.822c-1.073,1.112 -2.583,1.748 -4.331,1.748c-2.146,0 -3.695,-0.795 -4.808,-2.106c-1.27,-1.51 -2.026,-3.655 -2.066,-5.961l15.178,0c-0,-0.476 0.04,-0.833 0.04,-1.31c-0,-5.006 -3.138,-9.615 -8.502,-9.615c-2.783,-0 -5.086,1.192 -6.756,3.457c-1.549,2.105 -1.947,4.569 -1.947,7.072c0,3.019 0.915,5.642 2.543,7.549c1.431,1.629 3.457,2.821 6.318,2.821c2.265,0 4.251,-0.874 5.682,-2.304c1.112,-1.073 1.947,-2.464 2.225,-4.173Z" style="fill:#231f20;fill-rule:nonzero;"/><path d="M97.671,197.927c-1.55,0 -2.623,-0.716 -3.339,-1.63c-1.032,-1.349 -1.31,-3.257 -1.31,-5.044c-0,-1.79 0.278,-3.657 1.31,-5.008c0.716,-0.913 1.789,-1.629 3.339,-1.629c3.894,-0 4.688,3.655 4.688,6.637c0,2.979 -0.794,6.674 -4.688,6.674Zm4.45,-15.536c-0.874,-1.072 -2.782,-1.947 -5.404,-1.947c-2.106,0 -3.775,0.637 -5.046,1.669c-2.464,2.027 -3.696,5.166 -3.696,9.217c0,3.896 1.192,6.995 3.656,9.021c1.271,1.033 2.98,1.749 5.046,1.749c2.265,-0 4.57,-0.835 5.802,-2.743l0.317,2.266l4.292,-0l0,-28.688l-4.967,0l0,9.456Z" style="fill:#231f20;fill-rule:nonzero;"/><path d="M117.934,184.06l-0.437,-3.099l-4.212,0l-0,20.662l5.007,-0l-0,-10.411c-0,-3.338 1.827,-5.84 5.324,-5.84c0.556,-0 1.152,0.078 1.708,0.198l-0,-4.768c-0.516,-0.08 -1.033,-0.12 -1.549,-0.12c-2.424,0 -4.888,0.994 -5.841,3.378Z" style="fill:#231f20;fill-rule:nonzero;"/><path d="M139.625,196.496c-0.676,0.715 -1.788,1.311 -3.139,1.311c-1.351,-0 -2.464,-0.596 -3.139,-1.311c-1.192,-1.311 -1.47,-3.258 -1.47,-5.205c0,-1.946 0.278,-3.893 1.47,-5.204c0.675,-0.715 1.788,-1.311 3.139,-1.311c1.351,0 2.463,0.596 3.139,1.311c1.192,1.311 1.47,3.258 1.47,5.204c0,1.947 -0.278,3.894 -1.47,5.205Zm-3.139,-16.052c-3.139,0 -5.801,1.471 -7.232,3.219c-1.549,1.947 -2.423,4.131 -2.423,7.628c-0,3.498 0.874,5.681 2.423,7.63c1.431,1.747 4.093,3.218 7.232,3.218c3.139,-0 5.801,-1.471 7.232,-3.218c1.549,-1.949 2.424,-4.132 2.424,-7.63c-0,-3.497 -0.875,-5.681 -2.424,-7.628c-1.431,-1.748 -4.093,-3.219 -7.232,-3.219Z" style="fill:#231f20;fill-rule:nonzero;"/><rect x="150.829" y="172.974" width="5.323" height="5.125" style="fill:#231f20;fill-rule:nonzero;"/><rect x="150.987" y="180.961" width="5.047" height="20.661" style="fill:#231f20;fill-rule:nonzero;"/><path d="M168.429,195.105l0,-10.051l5.206,-0l0,-4.093l-5.206,0l0,-6.476l-4.966,1.231l0,5.245l-3.775,0l0,4.093l3.775,-0l0,10.489c0,3.974 2.066,6.358 6.238,6.358c1.47,-0 2.861,-0.199 4.251,-0.556l-0,-4.172c-1.35,0.158 -2.185,0.199 -3.217,0.199c-1.591,-0 -2.306,-0.677 -2.306,-2.267Z" style="fill:#231f20;fill-rule:nonzero;"/><path d="M189.607,174.683l7.946,4.451l1.589,-2.583l-7.311,-5.484l-2.224,3.616Z" style="fill:#231f20;fill-rule:nonzero;"/><path d="M197.831,193.398c-0,3.06 -2.185,4.728 -5.285,4.728c-1.549,-0 -2.939,-0.994 -2.939,-2.583c-0,-1.668 1.469,-2.583 2.979,-2.701l5.245,-0.399l-0,0.955Zm4.847,3.098l0,-7.669c0,-1.39 -0.078,-2.86 -0.595,-4.171c-1.192,-3.099 -4.212,-4.212 -7.748,-4.212c-4.61,0 -8.305,2.067 -8.583,6.715l4.808,-0c0.119,-1.907 1.47,-2.94 3.775,-2.94c2.821,0 3.496,1.311 3.496,3.259l-0,1.271l-6.079,0.436c-3.934,0.278 -6.993,2.545 -6.993,6.477c0,3.378 2.542,6.477 7.469,6.477c2.941,-0 5.325,-1.43 6.279,-3.099c0.158,1.55 1.35,2.899 3.496,2.899c1.192,0 1.629,-0.198 2.464,-0.555l-0,-3.655c-0,0 -0.318,0.078 -0.637,0.078c-0.834,-0 -1.152,-0.356 -1.152,-1.311Z" style="fill:#231f20;fill-rule:nonzero;"/><path d="M221.987,195.464l0,-22.569l-5.006,0l-0,23.402c-0,3.936 2.265,5.563 5.642,5.563c0.993,-0 1.193,-0.08 2.185,-0.278l0,-4.171c-0.278,-0 -0.397,0.04 -0.834,0.04c-1.709,0 -1.987,-0.795 -1.987,-1.987Z" style="fill:#231f20;fill-rule:nonzero;"/><path d="M226.629,179.292l2.86,0c-0,1.987 -0.515,3.059 -2.581,4.053l1.31,2.305c3.298,-1.392 4.172,-3.576 4.172,-6.795l0,-5.403l-5.761,0l-0,5.84Z" style="fill:#231f20;fill-rule:nonzero;"/><path d="M260.51,184.27c-3.217,0 -6.673,1.431 -8.46,4.052l0,-15.313l-7.449,-0l-0,43.024l7.449,-0l0,-16.328c0,-3.814 1.906,-8.582 6.374,-8.582c3.933,0 5.126,2.206 5.126,5.781l0,19.129l7.449,-0l-0,-20.679c-0,-6.376 -3.874,-11.084 -10.489,-11.084Z" style="fill:#231f20;fill-rule:nonzero;"/><path d="M284.523,206.915c0,-2.503 2.205,-3.873 4.469,-4.053l7.867,-0.596l0,1.431c0,4.587 -3.278,7.09 -7.925,7.09c-2.324,-0 -4.411,-1.489 -4.411,-3.872Zm13.349,5.243c0.239,2.325 2.025,4.351 5.244,4.351c1.788,-0 2.443,-0.298 3.694,-0.835l-0,-5.482c-0,0 -0.477,0.119 -0.953,0.119c-1.252,-0 -1.729,-0.535 -1.729,-1.967l0,-11.501c0,-2.085 -0.119,-4.29 -0.893,-6.257c-1.787,-4.647 -6.317,-6.316 -11.621,-6.316c-6.911,0 -12.454,3.1 -12.871,10.072l7.211,-0c0.178,-2.861 2.204,-4.41 5.66,-4.41c4.231,0 5.245,1.966 5.245,4.886l0,1.907l-9.117,0.655c-5.899,0.417 -10.489,3.814 -10.489,9.714c0,5.064 3.814,9.712 11.203,9.712c4.41,0 7.986,-2.145 9.416,-4.648Z" style="fill:#231f20;fill-rule:nonzero;"/><path d="M327.427,190.527c2.324,-0 3.933,1.074 5.005,2.443c1.55,2.028 1.968,4.827 1.968,7.51c0,2.68 -0.418,5.541 -1.968,7.566c-1.072,1.372 -2.681,2.443 -5.005,2.443c-1.907,0 -3.337,-0.595 -4.35,-1.547c-2.145,-1.968 -2.682,-5.423 -2.682,-8.462c0,-4.471 1.192,-9.953 7.032,-9.953Zm-14.124,-17.518l0,43.024l6.436,-0l0.477,-3.397c1.847,2.86 5.304,4.111 8.7,4.111c3.099,-0 5.603,-1.073 7.509,-2.621c3.695,-3.039 5.543,-7.688 5.543,-13.528c0,-6.078 -1.848,-10.785 -5.543,-13.825c-1.906,-1.549 -4.41,-2.503 -7.568,-2.503c-3.694,0 -6.674,1.312 -8.104,3.04l-0,-14.301l-7.45,-0Z" style="fill:#231f20;fill-rule:nonzero;"/><rect x="349.235" y="185.045" width="7.568" height="30.988" style="fill:#231f20;fill-rule:nonzero;"/><rect x="348.997" y="173.067" width="7.985" height="7.687" style="fill:#231f20;fill-rule:nonzero;"/><path d="M367.945,177.18l-0,7.865l-5.661,-0l-0,6.139l5.661,-0l-0,15.731c-0,5.958 3.1,9.534 9.356,9.534c2.205,-0 4.29,-0.298 6.376,-0.834l0,-6.256c-2.026,0.237 -3.277,0.297 -4.826,0.297c-2.384,-0 -3.457,-1.014 -3.457,-3.397l0,-15.075l7.807,-0l0,-6.139l-7.807,-0l0,-9.713l-7.449,1.848Z" style="fill:#231f20;fill-rule:nonzero;"/><path d="M407.035,203.697c0,4.587 -3.277,7.09 -7.925,7.09c-2.324,-0 -4.409,-1.489 -4.409,-3.872c-0,-2.503 2.203,-3.873 4.469,-4.053l7.865,-0.596l0,1.431Zm7.271,4.647l-0,-11.501c-0,-2.085 -0.119,-4.29 -0.894,-6.257c-1.787,-4.647 -6.317,-6.316 -11.62,-6.316c-6.913,0 -12.455,3.1 -12.872,10.072l7.211,-0c0.179,-2.861 2.205,-4.41 5.661,-4.41c4.231,0 5.243,1.966 5.243,4.886l0,1.907l-9.116,0.655c-5.9,0.417 -10.489,3.814 -10.489,9.714c0,5.064 3.814,9.712 11.204,9.712c4.408,0 7.984,-2.145 9.415,-4.648c0.238,2.325 2.025,4.351 5.243,4.351c1.788,-0 2.444,-0.298 3.695,-0.835l0,-5.482c0,0 -0.477,0.119 -0.954,0.119c-1.25,-0 -1.727,-0.535 -1.727,-1.967Z" style="fill:#231f20;fill-rule:nonzero;"/><path d="M432.412,206.259l-0,-15.075l7.806,-0l-0,-6.139l-7.806,-0l-0,-9.713l-7.449,1.848l0,7.865l-5.661,-0l0,6.139l5.661,-0l0,15.731c0,5.958 3.098,9.534 9.356,9.534c2.205,-0 4.29,-0.298 6.376,-0.834l-0,-6.256c-2.026,0.237 -3.277,0.297 -4.827,0.297c-2.384,-0 -3.456,-1.014 -3.456,-3.397Z" style="fill:#231f20;fill-rule:nonzero;"/><path d="M15.449,11.118l16.724,-0c7.182,-0 11.511,4.919 11.511,10.527c-0,6.591 -4.133,10.331 -11.314,10.331l-16.921,-0l-0,-20.858Zm0.097,32.27l15.447,0l11.608,26.366l13.774,0l-12.79,-28.531c7.675,-2.853 12.79,-10.231 12.79,-19.578c0,-11.215 -7.575,-21.645 -24.202,-21.645l-29.416,0l0,69.754l12.789,0l0,-26.366Z" style="fill:#c6168d;fill-rule:nonzero;"/><path d="M125.237,48.503l-14.068,-47.42l-10.626,0l-14.364,47.42l-9.74,-48.503l-12.101,0l14.07,69.754l12.691,0l14.561,-48.109l14.561,48.109l12.691,0l13.872,-69.754l-11.61,0l-9.937,48.503Z" style="fill:#c6168d;fill-rule:nonzero;"/><path d="M173.251,11.414l14.463,-0c4.034,-0 7.477,1.573 9.838,3.935c4.918,4.919 5.018,13.085 5.018,19.479c-0,6.395 -0.1,14.659 -5.018,19.579c-2.361,2.36 -5.804,3.935 -9.838,3.935l-14.463,-0l-0,-46.928Zm34.04,50.863c7.182,-7.379 8.167,-17.807 8.167,-27.449c0,-9.642 -0.985,-19.972 -8.167,-27.35c-4.624,-4.821 -11.609,-7.478 -19.577,-7.478l-27.155,-0l-0,69.754l27.155,0c7.968,0 14.953,-2.656 19.577,-7.477Z" style="fill:#c6168d;fill-rule:nonzero;"/><path d="M244.482,39.353l28.629,0l-0,30.401l12.69,0l0,-69.754l-12.69,0l-0,27.254l-28.629,-0l0,-27.254l-12.694,0l-0,69.754l12.694,0l0,-30.401Z" style="fill:#c6168d;fill-rule:nonzero;"/></svg>